# xmcd
#
# Track frame offsets:
#	150
#	10374
#	22850
#	35202
#	46119
#	60271
#	76451
#	89432
#	98998
#	114014
#	127670
#	136781
#	148205
#	161603
#	173182
#	188562
#	211274
#	226586
#	241457
#	251379
#
# Disc length: 3503 seconds
#
# Revision: 1
# Processed by: cddbd v1.5.1PL0 Copyright (c) Steve Scherf et al.
# Submitted via: audiograbber 1.83.01
#
DISCID=f30dad14
DTITLE=Various Artist - My Goodness, Yes!
DYEAR=2005
DGENRE=Soul
TTITLE0=Ruben Bell - Action Speaks Louder Than Words
TTITLE1=Robert Parker - You See Me
TTITLE2=Bettye Lavette - Do Your Duty
TTITLE3=Eddie Giles - So Deep In Love
TTITLE4=Willie Hobbs - Love 'Em And Leave 'Em
TTITLE5=Gloria Taylor - You Got To Pay The Price
TTITLE6=Laura Green And Johnny Mckinnis - Pledging My Love
TTITLE7=Big "Al" Downing - Corbread Row
TTITLE8=George Perkins And The Silver Stars - Cryin' In The Streets [part 1]
TTITLE9=Marilyn Haywood - Mama's Baby (Ain't A Baby No More)
TTITLE10=Robert Parker - You Shakin' Things Up
TTITLE11=Bettye Lavette - Love's Made A Fool Of Me
TTITLE12=Willie Hobbs - Yes, My Goodness, Yes
TTITLE13=Gloria Taylor - Grounded [part 1]
TTITLE14=Bettye Lavette - Games People Play
TTITLE15=Hank Ballard - Sunday Morning Coming Down
TTITLE16=Rosalind Madison - Use What You've Got
TTITLE17=Bright Lights - Motorcity Funk
TTITLE18=South Street Soul Guitars - Poppin' Popcorn
TTITLE19=Bettye Lavette - He Made A Woman Out Of Me
EXTD=Soul Treasures From The Silver Fox Label
EXTT0=
EXTT1=
EXTT2=
EXTT3=
EXTT4=
EXTT5=
EXTT6=
EXTT7=
EXTT8=
EXTT9=
EXTT10=
EXTT11=
EXTT12=
EXTT13=
EXTT14=
EXTT15=
EXTT16=
EXTT17=
EXTT18=
EXTT19=
PLAYORDER=
